<svg xmlns="http://www.w3.org/2000/svg" viewBox="0 0 100 100">
  <rect width="100" height="100" rx="20" fill="#3b82f6"/>
  <g transform="translate(20, 20)">
    <circle cx="30" cy="30" r="25" fill="none" stroke="white" stroke-width="5"/>
    <path d="M30 15c-8.28 0-15 6.72-15 15s6.72 15 15 15 15-6.72 15-15-6.72-15-15-15z" fill="white"/>
    <path d="M45 30c0 8.28-6.72 15-15 15s-15-6.72-15-15 6.72-15 15-15 15 6.72 15 15z" fill="white" opacity="0.7"/>
    <path d="M60 30c0 16.57-13.43 30-30 30s-30-13.43-30-30 13.43-30 30-30 30 13.43 30 30z" fill="white" opacity="0.3"/>
  </g>
</svg>