<?xml version="1.0" encoding="UTF-8"?>
<svg xmlns="http://www.w3.org/2000/svg" width="16" height="16" viewBox="0 0 16 16">
  <rect width="16" height="16" fill="#3b82f6"/>
  <path d="M8 2C5.5 2 3.5 4 3.5 6.5c0 1.5.7 2.8 1.8 3.6.2.2.3.4.3.7 0 .3-.1.6-.3.8l-1.5 1.5c-.2.2-.2.5 0 .7.2.2.5.2.7 0l1.5-1.5c.2-.2.5-.3.8-.3.3 0 .5.1.7.3.8 1.1 2.1 1.8 3.6 1.8s2.8-.7 3.6-1.8c.2-.2.5-.3.7-.3.3 0 .5.1.7.3l1.5 1.5c.2.2.5.2.7 0 .2-.2.2-.5 0-.7l-1.5-1.5c-.2-.2-.3-.5-.3-.8 0-.3.1-.5.3-.7 1.1-.8 1.8-2.1 1.8-3.6C12.5 4 10.5 2 8 2zm0 1.5c1.7 0 3 1.3 3 3s-1.3 3-3 3-3-1.3-3-3 1.3-3 3-3z" fill="#fff"/>
</svg>